<?xml version="1.0" ?><!DOCTYPE svg  PUBLIC '-//W3C//DTD SVG 1.1//EN'  'http://www.w3.org/Graphics/SVG/1.1/DTD/svg11.dtd'><svg enable-background="new 0 0 512 512" height="512px" id="Layer_1" version="1.1" viewBox="0 0 512 512" width="512px" xml:space="preserve" xmlns="http://www.w3.org/2000/svg" xmlns:xlink="http://www.w3.org/1999/xlink"><g><rect fill="#404342" height="28" width="43" x="234" y="142"/><path d="M356,104.86c11-7.19,23.677-12.192,37.528-14.23C420.868,86.601,447,94.705,467,110.885V158H356V104.86z" fill="#404342"/><path d="M158,104.86c-11-7.19-23.678-12.192-37.529-14.23C93.13,86.601,67,94.705,47,110.885V158h111V104.86z" fill="#404342"/><path d="M500.277,178.194c-7.6-51.643-55.63-87.482-107.272-79.875c-32.729,4.815-59.063,24.68-72.019,53.68    H192.403c-12.955-29-39.289-48.865-72.019-53.68c-51.634-7.608-99.673,28.167-107.273,79.808    c-1.234,8.38-1.319,16.708-0.393,24.747l-0.309-0.038L31.568,376.78l0.424,3.792c0,0.023,0,0.057,0.007,0.08    c3.141,20.632,19.398,37.701,41.118,40.896c22.321,3.286,43.332-9.104,51.873-28.873c0.023-0.044,0.046-0.093,0.054-0.137    l0.293-0.688l29.575-70.613c-1.736,2.716-3.018,5.193-3.951,7.252c0.933-2.082,2.229-4.575,3.981-7.33l-0.031,0.078    c0.016-0.023,0.031-0.055,0.046-0.078c10.462-16.412,37.375-41.851,103.523-41.851c63.769,0,88.805,23.641,98.803,40.053    c4.236,6.936,5.715,12.584,5.715,14.599c0,0.008,0,0.016,0,0.016v0.341l24.578,57.534l0.526,0.688    c0.016,0.044,0.159,0.092,0.182,0.139c8.541,19.766,29.604,32.159,51.926,28.87c21.72-3.191,38.008-20.26,41.146-40.893    c0.008-0.023,0.024-0.055,0.032-0.075l0.425-3.789l19.161-173.938l-0.308,0.055C501.603,194.868,501.513,186.573,500.277,178.194z     M149.696,331.553c0.324-0.872,0.733-1.892,1.258-3.041C150.438,329.661,150.021,330.687,149.696,331.553z" fill="#393C3B"/><path d="M149.696,331.553c0.324-0.872,0.733-1.892,1.258-3.041C150.438,329.661,150.021,330.687,149.696,331.553z" fill="#393C3B"/><path d="M154.943,321.158l-0.031,0.078c-1.736,2.716-3.018,5.193-3.951,7.252    C151.895,326.406,153.191,323.913,154.943,321.158z" fill="#393C3B"/><path d="M363.964,333.959l-6.195-14.599C362.005,326.296,363.192,331.944,363.964,333.959z" fill="#393C3B"/><path d="M149.696,331.553c0.324-0.872,0.733-1.892,1.258-3.041C150.438,329.661,150.021,330.687,149.696,331.553z" fill="#393C3B"/><path d="M154.943,321.158l-0.031,0.078c-1.736,2.716-3.018,5.193-3.951,7.252    C151.895,326.406,153.191,323.913,154.943,321.158z" fill="#393C3B"/><circle cx="106.382" cy="194.046" fill="#464948" r="69.948"/><circle cx="405.754" cy="194.046" fill="#464948" r="69.949"/><circle cx="405.754" cy="155.83" fill="#A8C8C7" r="21.754"/><circle cx="405.754" cy="232.021" fill="#F89392" r="21.754"/><circle cx="443.85" cy="193.926" fill="#6EA4A1" r="21.754"/><circle cx="367.659" cy="193.926" fill="#F67876" r="21.754"/><circle cx="192.1" cy="287.316" fill="#393C3B" r="46.37"/><circle cx="322.497" cy="287.316" fill="#393C3B" r="46.371"/><circle cx="192.1" cy="287.316" fill="#464948" r="37.156"/><circle cx="322.496" cy="287.316" fill="#464948" r="37.156"/><path d="M92,242.631c4,0.939,9.06,1.448,13.625,1.448c4.476,0,9.375-0.492,13.375-1.396v-97.271    c-4-0.905-8.898-1.397-13.375-1.397c-4.566,0-9.625,0.509-13.625,1.449V242.631z" fill="#676868"/><path d="M57.674,181c-0.94,4-1.448,8.06-1.448,12.625c0,4.477,0.491,8.375,1.396,12.375h97.271    c0.904-4,1.396-7.898,1.396-12.375c0-4.565-0.509-8.625-1.449-12.625H57.674z" fill="#676868"/><rect fill="#676868" height="14" width="34" x="200" y="186"/><rect fill="#676868" height="14" width="35" x="277" y="186"/></g></svg>